Patient4_TMGait_0pt8_01_right_47_GRF.mot
version=1
nRows=39
nColumns=19
inDegrees=no
endheader
time	F1x	F1y	F1z	M1x	M1y	M1z	F2x	F2y	F2z	M2x	M2y	M2z	EC1x	EC1y	EC1z	EC2x	EC2y	EC2z
52.9	10.8113	710.5368	70.1089	-248.7217	-72.8163	790.0032	4.5003	6.3319	0.051851	1.2414	1.2939	0.81178	-0.0592	0.0182	-0.0073	-0.0462	0.0165	0.9585
52.9113	9.5489	711.82	68.3308	-249.2427	-70.7702	786.2961	2.9114	5.3455	0.12519	1.167	0.91227	1.9091	-0.0592	0.0182	-0.0073	-0.0462	0.0165	0.9585
52.9226	8.8281	713.3052	66.7271	-249.8288	-68.6758	782.461	1.6007	4.5146	0.12292	1.1302	0.61153	2.8651	-0.0592	0.0182	-0.0073	-0.0462	0.0165	0.9585
52.9339	8.7449	714.8569	65.3912	-250.4383	-66.6235	778.554	0.60594	3.9051	0.081554	1.1265	0.3981	3.6422	-0.0592	0.0182	-0.0073	-0.0462	0.0165	0.9585
52.9451	9.3074	716.3206	64.359	-251.0197	-64.6645	774.5207	-0.072593	3.5127	0.01775	1.1466	0.26751	4.2074	-0.0592	0.0182	-0.0073	-0.0462	0.0165	0.9585
52.9564	10.4871	717.5408	63.6143	-251.5174	-62.7949	770.2454	-0.49765	3.2978	-0.054514	1.1802	0.2126	4.5627	-0.0592	0.0182	-0.0073	-0.0462	0.0165	0.9585
52.9677	12.2244	718.3646	63.1318	-251.8718	-61.0125	765.5868	-0.73024	3.1735	-0.13172	1.2071	0.22228	4.6879	-0.0592	0.0182	-0.0073	-0.0462	0.0165	0.9585
52.979	14.4269	718.6832	62.9115	-252.0283	-59.3462	760.4403	-0.83101	3.0662	-0.20829	1.2074	0.28022	4.6084	-0.0592	0.0182	-0.0073	-0.0462	0.0165	0.9585
52.9903	17.0162	718.4651	62.9092	-251.9547	-57.7833	754.7721	-0.85293	2.8403	-0.28007	1.1411	0.3708	4.2498	-0.0592	0.0182	-0.0073	-0.0462	0.0165	0.9585
53.0016	19.8993	717.7843	63.1291	-251.6489	-56.356	748.6812	-0.82838	2.3969	-0.34474	0.97432	0.47786	3.5669	-0.0592	0.0182	-0.0073	-0.0462	0.0165	0.9585
53.0129	23.0372	716.8022	63.5346	-251.1429	-55.0464	742.3622	-0.76712	1.5828	-0.40913	0.65873	0.58998	2.4134	-0.0592	0.0182	-0.0073	-0.0462	0.0165	0.9585
53.0241	26.3964	715.7655	64.15	-250.4948	-53.8886	736.1109	-0.68199	0.28491	-0.47344	0.15631	0.69215	0.67332	-0.0592	0.0182	-0.0073	-0.0462	0.0165	0.9585
53.0354	29.9772	714.8905	64.9903	-249.7545	-52.8995	730.1811	-0.54794	-1.5928	-0.53094	-0.56359	0.75414	-1.7704	-0.0592	0.0182	-0.0073	-0.0462	0.0165	0.9585
53.0467	33.7879	714.3463	66.098	-248.9577	-52.1206	724.7814	-0.36806	-4.0687	-0.56529	-1.5046	0.74431	-4.9315	-0.0592	0.0182	-0.0073	-0.0462	0.0165	0.9585
53.058	37.8584	714.251	67.5041	-248.1377	-51.572	720.0203	-0.11268	-7.0151	-0.5472	-2.6145	0.61307	-8.6666	-0.0592	0.0182	-0.0073	-0.0462	0.0165	0.9585
53.0693	42.2138	714.7118	69.1923	-247.336	-51.2304	715.9836	0.21077	-10.0693	-0.43993	-3.7524	0.3133	-12.5264	-0.0592	0.0182	-0.0073	-0.0462	0.0165	0.9585
53.0806	46.873	715.7935	71.1429	-246.5933	-51.0691	712.6911	0.61703	-12.5326	-0.18306	-4.6488	-0.22686	-15.6649	-0.0592	0.0182	-0.0073	-0.0462	0.0165	0.9585
53.0919	51.8078	717.492	73.2666	-245.9369	-51.0047	710.1036	1.0728	-13.2421	0.2811	-4.8617	-1.0597	-16.6085	-0.0592	0.0182	-0.0073	-0.0462	0.0165	0.9585
53.1031	56.9409	719.6795	75.4894	-245.3565	-50.9802	708.0786	1.5375	-10.5136	1.0227	-3.7513	-2.236	-13.208	-0.0592	0.0182	-0.0073	-0.0462	0.0165	0.9585
53.1144	62.1369	722.0447	77.6764	-244.7861	-50.9033	706.3234	1.8777	-2.0798	2.0718	-0.46618	-3.7293	-2.5646	-0.0592	0.0182	-0.0073	-0.0462	0.0165	0.9585
53.1257	67.255	724.0513	79.6978	-244.0858	-50.6903	704.3201	1.9171	14.7536	3.415	6.0026	-5.4315	18.7591	-0.0592	0.0182	-0.0073	-0.0462	0.0165	0.9585
53.137	72.1656	724.8829	81.3574	-243.0262	-50.1986	701.2923	1.3592	42.812	4.9545	16.6989	-7.0819	54.3986	-0.0592	0.0182	-0.0073	-0.0462	0.0165	0.9585
53.1483	76.7261	723.3597	82.4071	-241.267	-49.2478	696.1296	-0.14258	84.4085	6.4446	32.4585	-8.2072	107.3327	-0.0592	0.0182	-0.0073	-0.0462	0.0165	0.9585
53.1596	80.7879	717.9337	82.5318	-238.3501	-47.6097	687.3996	-3.0552	140.3256	7.4426	53.5238	-8.0468	178.6156	-0.0592	0.0182	-0.0073	-0.0462	0.0165	0.9585
53.1709	84.1301	706.6837	81.3888	-233.6934	-45.0557	673.3566	-8.1791	208.6344	7.2887	79.093	-5.4453	265.8273	-0.0592	0.0182	-0.0073	-0.0462	0.0165	0.9585
53.1821	86.4387	687.5033	78.6924	-226.6401	-41.4526	652.1105	-16.7344	283.5015	5.0802	106.883	1.1674	361.5989	-0.0592	0.0182	-0.0073	-0.0462	0.0165	0.9585
53.1934	87.313	658.4047	74.2711	-216.5553	-36.8163	621.9091	-28.7091	356.0402	-0.28604	133.532	12.9448	454.573	-0.0592	0.0182	-0.0073	-0.0462	0.0165	0.9585
53.2047	86.3466	618.1236	68.1509	-203.0159	-31.3493	581.6542	-42.2579	419.9552	-8.4003	156.7187	28.6274	536.4405	-0.0592	0.0182	-0.0073	-0.0462	0.0165	0.9585
53.216	83.1932	566.7034	60.6123	-185.9944	-25.4443	531.4745	-55.6202	473.9407	-18.0389	175.9889	46.0522	605.2511	-0.0592	0.0182	-0.0073	-0.0462	0.0165	0.9585
53.2273	77.7094	505.5512	52.2001	-165.8938	-19.641	472.7247	-67.3977	519.6029	-28.2574	191.9979	63.4605	662.7918	-0.0592	0.0182	-0.0073	-0.0462	0.0165	0.9585
53.2386	69.9271	437.4059	43.5062	-143.5446	-14.4439	407.9789	-76.6375	559.3926	-37.8013	205.7455	79.0164	712.0478	-0.0592	0.0182	-0.0073	-0.0462	0.0165	0.9585
53.2499	60.1307	365.8399	35.0778	-120.0679	-10.2328	340.5393	-82.6839	595.0202	-46.106	217.9389	91.7284	755.1491	-0.0592	0.0182	-0.0073	-0.0462	0.0165	0.9585
53.2611	48.8646	294.9352	27.3227	-96.771	-7.1729	274.1732	-85.5057	626.9802	-52.5101	228.8297	100.8295	792.7731	-0.0592	0.0182	-0.0073	-0.0462	0.0165	0.9585
53.2724	37.0233	228.6022	20.5275	-74.9391	-5.2076	212.4044	-85.3348	654.9084	-57.2575	238.3011	106.6541	824.5847	-0.0592	0.0182	-0.0073	-0.0462	0.0165	0.9585
53.2837	25.6691	169.9474	14.8614	-55.6113	-4.1151	157.9893	-82.7101	678.4009	-60.6292	246.1862	109.7832	850.2341	-0.0592	0.0182	-0.0073	-0.0462	0.0165	0.9585
53.295	15.7391	120.7501	10.3571	-39.3961	-3.5871	112.4238	-78.2482	696.9988	-63.2344	252.2853	111.1848	869.3534	-0.0592	0.0182	-0.0073	-0.0462	0.0165	0.9585
53.3063	7.7683	81.4354	6.8937	-26.4542	-3.3151	76.0355	-72.6513	710.6221	-65.518	256.541	111.6669	882.0421	-0.0592	0.0182	-0.0073	-0.0462	0.0165	0.9585
53.3176	1.8945	51.4474	4.299	-16.6132	-3.0878	48.2682	-66.5905	719.5984	-67.6562	259.067	111.7207	888.8633	-0.0592	0.0182	-0.0073	-0.0462	0.0165	0.9585
53.3289	-1.9856	29.6134	2.43	-9.4855	-2.8098	28.0468	-60.6693	724.6391	-69.7248	260.1345	111.6561	890.849	-0.0592	0.0182	-0.0073	-0.0462	0.0165	0.9585
